<?xml version="1.0" standalone="no"?>
<!DOCTYPE svg PUBLIC "-//W3C//DTD SVG 20010904//EN"
 "http://www.w3.org/TR/2001/REC-SVG-20010904/DTD/svg10.dtd">
<svg version="1.0" xmlns="http://www.w3.org/2000/svg"
 width="1024.000000pt" height="1024.000000pt" viewBox="0 0 1024.000000 1024.000000"
 preserveAspectRatio="xMidYMid meet">
<metadata>
Created by potrace 1.14, written by Peter Selinger 2001-2017
</metadata>
<g transform="translate(0.000000,1024.000000) scale(0.100000,-0.100000)"
fill="#000000" stroke="none">
<path d="M5865 7079 c-186 -24 -375 -107 -537 -237 -109 -88 -810 -800 -867
-882 -290 -415 -265 -899 67 -1294 127 -150 276 -243 470 -292 l96 -24 123
122 c67 67 121 123 119 125 -2 2 -44 10 -94 18 -185 30 -339 108 -447 228
-251 277 -285 634 -89 940 59 92 746 782 843 847 142 95 265 134 426 134 132
0 232 -24 345 -85 319 -172 500 -521 436 -839 -40 -198 -98 -285 -374 -562
l-216 -217 17 -53 c26 -83 40 -196 33 -262 l-7 -61 302 300 c165 165 328 336
361 380 171 227 244 501 205 761 -75 485 -502 898 -986 954 -98 11 -128 11
-226 -1z"/>
<path d="M5021 5756 l-124 -124 49 -7 c197 -27 342 -88 453 -191 175 -162 262
-352 262 -574 0 -154 -36 -273 -122 -407 -76 -118 -762 -800 -873 -868 -298
-184 -631 -155 -904 77 -123 104 -228 269 -268 418 -24 88 -24 262 -1 350 24
88 84 212 140 285 25 33 136 149 245 259 l200 198 -19 52 c-23 67 -39 195 -32
266 l5 55 -292 -290 c-307 -305 -386 -393 -446 -502 -244 -435 -161 -926 218
-1289 222 -213 462 -315 743 -315 214 0 392 55 581 181 107 71 887 851 956
956 143 217 195 398 185 641 -4 98 -11 149 -32 218 -55 185 -170 373 -311 504
-116 109 -227 167 -395 210 -46 12 -85 21 -89 21 -3 0 -61 -56 -129 -124z"/>
</g>
</svg>
